<svg xmlns="http://www.w3.org/2000/svg" width="48" height="48" fill="none" viewBox="0 0 48 48">
  <path fill="#2B80FF" stroke="#163A71" d="M9.108 20.84 7.95 23.163a4.266 4.266 0 0 0 .8 4.92 4.271 4.271 0 0 1 1.206 2.415l.878 6.156a3.046 3.046 0 0 0 1.325 2.103 3.064 3.064 0 0 0 1.702.516h3.63a1.257 1.257 0 0 1 1.23 1.006l.34 1.7c.145.725.5 1.391 1.024 1.915A3.77 3.77 0 0 0 22.753 45h.241a4.36 4.36 0 0 0 1.427-.24l3.94-1.364a10.28 10.28 0 0 0 4.595-3.207l1.434-1.754a5.207 5.207 0 0 0 1.108-4.138 5.205 5.205 0 0 1 .661-3.498l2.015-3.396a16.059 16.059 0 0 0 2.136-6.29l.075-.629a16.295 16.295 0 0 0-1.047-7.976l-.129-.323a14.23 14.23 0 0 0-2.403-3.974 14.284 14.284 0 0 0-5.54-3.972l-.295-.118A15.62 15.62 0 0 0 25.16 3h-1.494a13.64 13.64 0 0 0-4.797.871l-.081.03a13.207 13.207 0 0 0-4.703 3.033 13.158 13.158 0 0 0-2.785 4.12l-.066.153a13.988 13.988 0 0 0-1.058 4.111l-.278 2.788a7.874 7.874 0 0 1-.79 2.734Z"/>
  <path fill="#D5E6FF" d="M37 18c0 6.627-5.373 12-12 12s-12-5.373-12-12S18.373 6 25 6s12 5.373 12 12Z"/>
  <path fill="#2B80FF" d="M22.322 23.04c0 1.16-.953 2.102-2.128 2.102-1.176 0-2.129-.941-2.129-2.102 0-1.16.953-2.102 2.129-2.102 1.175 0 2.128.941 2.128 2.102Zm7.845-1.706c0 1.16-.953 2.102-2.129 2.102-1.175 0-2.128-.941-2.128-2.102 0-1.16.953-2.102 2.128-2.102 1.176 0 2.129.941 2.129 2.102Z"/>
  <path fill="#2B80FF" d="M21.496 12.888a.308.308 0 0 1 .242-.306l7.867-1.716c.19-.042.37.1.373.295l.162 10.016-.625-.889-.096-7.388-7.244 1.646.132 8.325-.636-1.321-.175-8.662Z"/>
</svg>
